<svg width="20" height="20" viewBox="0 0 20 20" fill="none" xmlns="http://www.w3.org/2000/svg">
<path d="M4 10C4 9.76097 4.09495 9.53173 4.26397 9.36271C4.43299 9.19369 4.66223 9.09874 4.90126 9.09874H9.09874V4.90126C9.09874 4.66223 9.19369 4.43299 9.36271 4.26397C9.53173 4.09495 9.76097 4 10 4C10.239 4 10.4683 4.09495 10.6373 4.26397C10.8063 4.43299 10.9013 4.66223 10.9013 4.90126V9.09874H15.0987C15.3378 9.09874 15.567 9.19369 15.736 9.36271C15.905 9.53173 16 9.76097 16 10C16 10.239 15.905 10.4683 15.736 10.6373C15.567 10.8063 15.3378 10.9013 15.0987 10.9013H10.9013V15.0987C10.9013 15.3378 10.8063 15.567 10.6373 15.736C10.4683 15.905 10.239 16 10 16C9.76097 16 9.53173 15.905 9.36271 15.736C9.19369 15.567 9.09874 15.3378 9.09874 15.0987V10.9013H4.90126C4.66223 10.9013 4.43299 10.8063 4.26397 10.6373C4.09495 10.4683 4 10.239 4 10Z" fill="#FCFCFC"/>
<path fill-rule="evenodd" clip-rule="evenodd" d="M4.47418 0.304811C8.14632 -0.101604 11.8522 -0.101604 15.5244 0.304811C17.6799 0.545086 19.4201 2.23996 19.6726 4.40361C20.1091 8.12197 20.1091 11.878 19.6726 15.5964C19.4189 17.76 17.6787 19.4537 15.5244 19.6952C11.8522 20.1016 8.14632 20.1016 4.47418 19.6952C2.31865 19.4537 0.578414 17.76 0.325933 15.5964C-0.108644 11.8781 -0.108644 8.12192 0.325933 4.40361C0.578414 2.23996 2.31983 0.545086 4.47418 0.304811ZM15.3285 2.05976C11.7865 1.66781 8.21201 1.66781 4.67003 2.05976C4.01433 2.13238 3.40231 2.42355 2.93283 2.88625C2.46336 3.34894 2.16384 3.95613 2.08268 4.60973C1.66306 8.19143 1.66306 11.8097 2.08268 15.3914C2.16409 16.0448 2.46371 16.6517 2.93317 17.1142C3.40262 17.5767 4.01451 17.8677 4.67003 17.9402C8.18235 18.3313 11.8162 18.3313 15.3285 17.9402C15.9838 17.8674 16.5954 17.5763 17.0646 17.1139C17.5339 16.6514 17.8333 16.0447 17.9147 15.3914C18.3343 11.8097 18.3343 8.19143 17.9147 4.60973C17.8331 3.95674 17.5335 3.35023 17.0643 2.88802C16.5951 2.42582 15.9836 2.13487 15.3285 2.06211" fill="#FCFCFC"/>
</svg>
