<svg width="110" height="155" viewBox="0 0 110 155" fill="none" xmlns="http://www.w3.org/2000/svg">
<path fill-rule="evenodd" clip-rule="evenodd" d="M33.7781 43.5577C34.6028 42.1095 37.503 38.1625 38.6641 37.2448L46.0526 43.9227C44.5413 44.4575 37.2933 46.8189 36.52 46.887C35.4839 45.8255 34.5767 44.653 33.7781 43.5577ZM26.0969 32.4457C27.537 31.4656 28.364 30.432 29.7303 29.4185C30.8971 29.883 35.2903 34.1252 36.1419 35.0819C35.7196 36.3876 32.7368 40.0613 31.3571 40.5811C29.7122 37.8563 26.4886 34.484 26.0969 32.4457ZM48.5436 18.2901C53.8848 17.8627 53.3804 22.8503 51.0735 23.6365C49.1969 24.2759 47.6403 23.2684 47.2546 22.1161C46.5548 20.0257 47.7126 19.3958 48.5436 18.2901ZM24.37 30.0674C22.8177 29.4644 21.6944 27.5168 20.7794 26.1606C19.1267 23.7109 12.5014 15.3779 11.8363 13.5404C13.1078 14.1618 18.4925 19.2121 19.6969 20.4574C21.3043 22.1197 26.3867 25.7096 27.12 27.6737L24.37 30.0674ZM33.588 48.7307C32.7811 49.4005 31.5428 50.1946 30.5578 50.9119C25.3149 54.7305 22.653 61.2575 18.4919 66.0134C13.8011 71.3745 4.78624 77.8106 1.96401 82.3536C-4.82482 93.2819 7.21177 108.234 19.354 100.108C21.9004 98.4033 22.4312 96.7612 25.1152 94.7969C33.9817 88.3076 43.015 93.8024 51.7753 88.5735C56.5788 85.7063 59.8578 81.6402 58.9245 73.673C57.4217 75.8561 56.8305 78.5987 55.0001 81.0746C47.6164 91.0619 37.4971 86.1514 28.884 89.2527C20.4897 92.2752 20.3349 96.5991 15.538 98.7971C7.79399 102.345 -5.23929 90.0413 9.27014 78.9412C13.6599 75.5827 20.4202 69.0847 23.5609 64.6461C27.467 59.1256 28.7648 55.8153 34.0026 52.2222C38.5113 49.1293 44.3572 47.6076 50.7897 46.1074L50.932 27.2719C58.4298 25.138 57.3651 15.4673 50.4143 14.7533C43.1125 14.0032 40.7176 24.3241 47.9171 27.1701L48.0029 41.2262L33.3112 28.2794C32.1631 27.3773 31.4096 26.3997 30.4069 25.4682C28.5491 23.7425 26.2259 22.2427 24.3702 20.4216C23.6594 19.7241 23.799 19.7148 23.1421 19.1676L12.5925 10.0454C11.595 9.21673 10.6323 8.33321 9.74496 7.53119L5.16609 3.54105C3.38896 2.13193 2.14141 0.0958939 0.0197228 0C0.0319105 3.14681 1.13896 3.94265 3.24051 6.89091L33.588 48.7307Z" fill="#4DE0C6"/>
<path fill-rule="evenodd" clip-rule="evenodd" d="M52.9323 57.5442C52.1998 56.7071 51.2527 56.1529 51.9325 54.4997C52.3593 53.4623 53.4627 53.2203 54.5344 53.511C56.5097 54.0466 57.1 57.771 52.9323 57.5442ZM23.0644 127.344C23.7835 122.029 25.7785 117.573 28.6006 113.642C35.1752 104.484 47.3425 98.8065 49.0048 95.1027C43.8974 96.1618 36.8237 101.356 33.5925 103.978C8.25746 124.537 24.2907 154.297 27.3374 154.552C28.0852 147.562 27.5751 144.503 30.6286 138.529C34.5166 130.924 37.689 127.651 43.4383 122.404L48.5984 117.912C55.2307 112.93 63.1198 105.027 66.57 97.6338C70.9129 88.3271 72.818 75.5383 68.5101 65.988C66.1854 60.8345 64.2483 59.1043 59.1009 56.523C58.8446 54.6332 58.7253 53.2117 57.7569 52.0821C54.9669 48.8273 48.5347 50.7119 48.7256 55.7953C48.8363 58.7431 51.6224 61.2974 55.0391 60.4499C56.785 60.0167 57.0235 59.1978 59.2237 60.2634C65.3 63.2065 67.6667 71.6107 67.6713 79.0362C67.682 96.2213 57.5236 106.549 45.4778 116.579L39.5753 121.762C34.1365 127.256 28.8162 133.091 26.3732 140.722C25.9396 142.077 25.8056 143.528 25.0851 144.717C22.8117 142.58 22.6059 130.734 23.0644 127.344Z" fill="#4DE0C6"/>
<path fill-rule="evenodd" clip-rule="evenodd" d="M66.5131 5.69702C69.8459 3.68765 72.2321 9.13523 69.081 10.4981C65.6579 11.9787 63.6636 7.41473 66.5131 5.69702ZM66.0346 14.102C66.1097 29.9277 66.3256 24.7325 60.3209 31.3677C55.82 36.3413 55.6848 42.7823 60.4694 47.582C64.3539 51.4789 68.2768 52.5372 72.2775 59.0007C78.8916 69.6866 78.807 83.5633 75.0201 95.3957C74.4044 97.3195 73.4952 99.2589 72.614 100.834C71.9494 102.021 69.8932 105.246 69.6023 106.159C76.413 103.969 80.8378 89.105 80.8376 80.8229C80.8376 72.3854 80.117 66.364 76.1309 59.0856C72.3621 52.2045 70.0091 51.0671 64.9691 47.0074C62.8975 45.3387 60.7502 43.7854 60.306 40.3024C59.8698 36.8825 62.2785 33.774 63.9197 32.4659C70.3569 27.3349 69.2832 24.7645 69.278 14.7127C69.588 13.5288 70.8794 13.8786 72.3771 12.3309C77.5998 6.93374 69.972 -1.91863 63.8769 3.11956C62.2956 4.42662 61.1099 6.88338 61.8207 9.37704C62.6637 12.335 63.8814 12.7658 66.0346 14.102Z" fill="#4DE0C6"/>
<path fill-rule="evenodd" clip-rule="evenodd" d="M65.9834 37.0095C71.5041 39.4176 74.0763 37.2058 85.4812 47.2332C86.5442 48.1679 87.0256 48.711 87.8707 49.8413C88.5888 50.8012 89.5049 51.6173 90.2101 52.5126C95.3129 58.9916 99.8277 72.8608 110 72.4472C109.403 71.1273 104.192 67.7571 100.519 61.8559L94.5319 52.4745C93.6703 51.2367 92.5867 50.3826 92.2012 49.3793C97.9623 50.9333 100.141 49.4275 102.865 45.5577C97.0042 48.0106 95.4902 47.8698 88.8613 43.851L84.7597 41.1618C81.4355 38.9634 70.1084 32.6346 65.9834 37.0095Z" fill="#4DE0C6"/>
<path fill-rule="evenodd" clip-rule="evenodd" d="M109.849 101.692C109.123 100.571 106.478 99.1907 104.358 95.8981C102.791 93.4642 101.859 91.2244 101.009 88.1817C99.2385 81.8484 99.1926 76.0171 96.6849 69.9711C92.6523 60.2491 85.6076 50.1175 74.8232 47.2764C75.4958 49.11 80.9071 53.5814 82.9393 55.4881C84.7671 57.2031 84.4916 57.3046 85.608 58.537C95.045 68.9553 94.9449 79.2629 97.9587 90.8919C99.2005 95.6838 103.417 101.859 109.849 101.692Z" fill="#4DE0C6"/>
<path fill-rule="evenodd" clip-rule="evenodd" d="M94.3447 106.143C91.7443 100.058 92.2208 101.765 90.0833 94.7922C88.9753 91.1771 87.4006 85.5419 85.042 83.6721C86.0943 92.1023 87.2145 103.909 94.3447 106.143Z" fill="#4DE0C6"/>
<path fill-rule="evenodd" clip-rule="evenodd" d="M44.3267 59.7511L44.3236 58.9273L43.1879 59.0044C40.5242 59.254 38.088 60.3952 36.381 61.7458C35.7178 62.2706 32.3576 66.1308 31.9678 66.8508C37.7052 67.2425 43.1726 63.9949 44.3267 59.7511Z" fill="#4DE0C6"/>
<path fill-rule="evenodd" clip-rule="evenodd" d="M8.89998 86.3959C5.7188 87.5116 5.91778 91.8472 8.85732 91.1236C11.8942 90.3762 11.9668 85.3203 8.89998 86.3959Z" fill="#4DE0C6"/>
</svg>
