<svg width="17" height="17" viewBox="0 0 17 17" fill="none" xmlns="http://www.w3.org/2000/svg">
<path d="M4.25 10.35L6.65 12.75M4.25 10.35C4.25 10.35 5.667 6.808 7.684 4.35M4.25 10.35C-0.969 9.045 3.72 4.35 7.684 4.35M6.65 12.75C6.65 12.75 10.192 11.333 12.65 9.316M6.65 12.75C7.955 17.968 12.65 13.28 12.65 9.316M7.684 4.35C9.724 1.864 13.087 0.75 16.25 0.75C16.25 3.913 15.136 7.275 12.65 9.316M10.95 5.957L11.657 5.25M2.019 13.076C1.067 13.877 0.75 16.255 0.75 16.255C0.75 16.255 3.122 15.937 3.921 14.983C4.371 14.449 4.365 13.629 3.864 13.133C3.61631 12.9002 3.29207 12.7659 2.95229 12.7554C2.6125 12.7449 2.28059 12.8589 2.019 13.076Z" stroke="white" stroke-width="1.5" stroke-linecap="round" stroke-linejoin="round"/>
</svg>
