<svg width="17" height="19" viewBox="0 0 17 19" fill="none" xmlns="http://www.w3.org/2000/svg">
<path d="M1.875 3.25001L2.73438 17C2.7752 17.7945 3.35312 18.375 4.10938 18.375H12.0156C12.7749 18.375 13.3421 17.7945 13.3906 17L14.25 3.25001" stroke="white" stroke-linecap="round" stroke-linejoin="round"/>
<path d="M0.5 3.25001H15.625H0.5Z" fill="white"/>
<path d="M0.5 3.25001H15.625" stroke="white" stroke-miterlimit="10" stroke-linecap="round"/>
<path d="M5.3125 3.25V1.53125C5.3121 1.39572 5.33851 1.26144 5.39019 1.13614C5.44188 1.01085 5.51782 0.897005 5.61366 0.801165C5.7095 0.705326 5.82334 0.629379 5.94864 0.577695C6.07393 0.52601 6.20821 0.499607 6.34375 0.500004H9.78125C9.91679 0.499607 10.0511 0.52601 10.1764 0.577695C10.3017 0.629379 10.4155 0.705326 10.5113 0.801165C10.6072 0.897005 10.6831 1.01085 10.7348 1.13614C10.7865 1.26144 10.8129 1.39572 10.8125 1.53125V3.25M8.0625 6V15.625M4.96875 6L5.3125 15.625M11.1562 6L10.8125 15.625" stroke="white" stroke-linecap="round" stroke-linejoin="round"/>
</svg>
