<svg width="87" height="109" viewBox="0 0 87 109" fill="none" xmlns="http://www.w3.org/2000/svg">
<path fill-rule="evenodd" clip-rule="evenodd" d="M31.6173 36.8569C32.0592 36.081 33.613 33.9662 34.2351 33.4746L38.1938 37.0525C37.3841 37.339 33.5007 38.6042 33.0864 38.6407C32.5312 38.072 32.0452 37.4438 31.6173 36.8569ZM27.5018 30.9033C28.2734 30.3782 28.7165 29.8244 29.4486 29.2814C30.0737 29.5302 32.4275 31.8031 32.8838 32.3157C32.6575 33.0153 31.0594 34.9836 30.3201 35.2621C29.4389 33.8022 27.7117 31.9954 27.5018 30.9033ZM39.5284 23.3189C42.3901 23.0899 42.1199 25.7622 40.8839 26.1834C39.8784 26.526 39.0444 25.9862 38.8378 25.3689C38.4628 24.2488 39.0832 23.9114 39.5284 23.3189ZM26.5766 29.629C25.7449 29.306 25.143 28.2625 24.6528 27.5358C23.7673 26.2233 20.2176 21.7586 19.8613 20.7741C20.5425 21.1071 23.4275 23.813 24.0728 24.4802C24.934 25.3708 27.6571 27.2942 28.05 28.3465L26.5766 29.629ZM31.5154 39.6285C31.0831 39.9874 30.4196 40.4129 29.8919 40.7972C27.0828 42.8431 25.6566 46.3402 23.4272 48.8883C20.9139 51.7607 16.0839 55.2091 14.5718 57.6431C10.9345 63.4983 17.3835 71.5095 23.8891 67.1554C25.2534 66.2423 25.5378 65.3625 26.9758 64.31C31.7264 60.8332 36.5663 63.7772 41.2599 60.9756C43.8335 59.4395 45.5904 57.2609 45.0903 52.9922C44.2851 54.1619 43.9684 55.6313 42.9877 56.9579C39.0316 62.3089 33.6098 59.6779 28.9951 61.3396C24.4976 62.9589 24.4147 65.2756 21.8446 66.4533C17.6954 68.3545 10.7124 61.7621 18.4863 55.8148C20.8383 54.0154 24.4604 50.5339 26.1431 48.1558C28.2359 45.1979 28.9312 43.4244 31.7376 41.4992C34.1532 39.8421 37.2854 39.0268 40.7318 38.223L40.8081 28.1312C44.8253 26.9879 44.2548 21.8065 40.5307 21.424C36.6185 21.0221 35.3354 26.5519 39.1927 28.0767L39.2387 35.6077L31.3671 28.6711C30.752 28.1877 30.3483 27.6639 29.8111 27.1648C28.8156 26.2403 27.571 25.4367 26.5767 24.461C26.1958 24.0873 26.2707 24.0823 25.9187 23.7891L20.2664 18.9016C19.732 18.4576 19.2161 17.9842 18.7407 17.5545L16.2874 15.4166C15.3353 14.6617 14.6669 13.5708 13.5301 13.5194C13.5366 15.2054 14.1298 15.6318 15.2557 17.2114L31.5154 39.6285Z" fill="white"/>
<path fill-rule="evenodd" clip-rule="evenodd" d="M41.8785 44.3506C41.4861 43.9022 40.9787 43.6052 41.3429 42.7195C41.5715 42.1636 42.1627 42.034 42.737 42.1897C43.7953 42.4767 44.1115 44.4722 41.8785 44.3506ZM25.8758 81.7485C26.2611 78.9007 27.33 76.5132 28.842 74.4069C32.3646 69.5003 38.8836 66.4583 39.7742 64.4739C37.0378 65.0413 33.2478 67.8243 31.5166 69.2291C17.9425 80.2445 26.5328 96.1893 28.1652 96.3256C28.5659 92.5805 28.2925 90.9416 29.9286 87.7412C32.0117 83.6663 33.7114 81.9126 36.7918 79.1017L39.5565 76.6945C43.11 74.0253 47.3368 69.7914 49.1854 65.83C51.5123 60.8436 52.533 53.9916 50.2249 48.8747C48.9794 46.1135 47.9415 45.1865 45.1836 43.8035C45.0463 42.791 44.9824 42.0294 44.4635 41.4241C42.9686 39.6803 39.5224 40.69 39.6247 43.4136C39.684 44.993 41.1767 46.3616 43.0073 45.9075C43.9428 45.6754 44.0706 45.2366 45.2494 45.8076C48.5049 47.3844 49.773 51.8873 49.7755 55.8657C49.7812 65.0732 44.3385 70.6067 37.8846 75.9806L34.7221 78.7574C31.808 81.7012 28.9575 84.8276 27.6486 88.916C27.4163 89.6419 27.3445 90.4192 26.9585 91.0566C25.7404 89.9116 25.6302 83.5643 25.8758 81.7485Z" fill="white"/>
<path fill-rule="evenodd" clip-rule="evenodd" d="M49.1553 16.5717C50.9409 15.4951 52.2194 18.4139 50.5311 19.144C48.6971 19.9374 47.6285 17.492 49.1553 16.5717ZM48.8989 21.075C48.9391 29.5541 49.0548 26.7706 45.8376 30.3257C43.426 32.9904 43.3536 36.4414 45.9172 39.013C47.9984 41.1009 50.1002 41.6679 52.2437 45.131C55.7874 50.8563 55.7421 58.2912 53.7132 64.6308C53.3833 65.6615 52.8961 66.7007 52.424 67.5444C52.0679 68.1808 50.9662 69.9084 50.8104 70.3974C54.4595 69.2244 56.8302 61.2604 56.8301 56.823C56.8301 52.3023 56.444 49.0761 54.3083 45.1764C52.2891 41.4897 51.0284 40.8803 48.328 38.7052C47.2181 37.8111 46.0676 36.9789 45.8296 35.1127C45.5959 33.2804 46.8864 31.6149 47.7657 30.9141C51.2147 28.165 50.6394 26.7878 50.6367 21.4022C50.8027 20.7678 51.4946 20.9553 52.2971 20.126C55.0953 17.2343 51.0085 12.4914 47.7428 15.1908C46.8956 15.8911 46.2603 17.2074 46.6411 18.5434C47.0928 20.1283 47.7452 20.3591 48.8989 21.075Z" fill="white"/>
<path fill-rule="evenodd" clip-rule="evenodd" d="M48.8711 33.3485C51.829 34.6388 53.2072 33.4537 59.3177 38.8263C59.8872 39.327 60.1451 39.618 60.598 40.2236C60.9827 40.7379 61.4735 41.1752 61.8514 41.6549C64.5854 45.1262 67.0043 52.5571 72.4547 52.3355C72.1347 51.6283 69.3426 49.8226 67.3748 46.6608L64.1669 41.6345C63.7053 40.9713 63.1247 40.5136 62.9182 39.9761C66.0049 40.8087 67.172 40.0019 68.6318 37.9286C65.4915 39.2428 64.6804 39.1673 61.1287 37.0141L58.9311 35.5733C57.1501 34.3954 51.0812 31.0045 48.8711 33.3485Z" fill="white"/>
<path fill-rule="evenodd" clip-rule="evenodd" d="M72.3756 68.0042C71.9867 67.404 70.5695 66.6642 69.4337 64.9001C68.5942 63.5961 68.0948 62.396 67.6392 60.7658C66.6907 57.3725 66.6661 54.2482 65.3225 51.0088C63.1619 45.8 59.3875 40.3716 53.6094 38.8494C53.9697 39.8318 56.869 42.2275 57.9578 43.2491C58.9371 44.1679 58.7895 44.2223 59.3877 44.8826C64.4439 50.4646 64.3902 55.9872 66.005 62.2178C66.6703 64.7853 68.9297 68.0941 72.3756 68.0042Z" fill="white"/>
<path fill-rule="evenodd" clip-rule="evenodd" d="M64.0663 70.3893C62.673 67.1289 62.9283 68.0435 61.7831 64.3076C61.1894 62.3706 60.3457 59.3514 59.082 58.3496C59.6458 62.8663 60.246 69.1923 64.0663 70.3893Z" fill="white"/>
<path fill-rule="evenodd" clip-rule="evenodd" d="M37.2701 45.533L37.2685 45.0917L36.66 45.133C35.2328 45.2667 33.9275 45.8782 33.013 46.6018C32.6576 46.883 30.8573 48.9512 30.6484 49.3369C33.7225 49.5468 36.6518 47.8068 37.2701 45.533Z" fill="white"/>
<path fill-rule="evenodd" clip-rule="evenodd" d="M18.2883 59.8089C16.5838 60.4067 16.6905 62.7296 18.2654 62.3419C19.8925 61.9414 19.9314 59.2326 18.2883 59.8089Z" fill="white"/>
</svg>
