<svg width="22" height="18" viewBox="0 0 22 18" fill="none" xmlns="http://www.w3.org/2000/svg">
<path fill-rule="evenodd" clip-rule="evenodd" d="M10.75 5C9.75544 5 8.80161 5.39509 8.09835 6.09835C7.39509 6.80161 7 7.75544 7 8.75C7 9.74456 7.39509 10.6984 8.09835 11.4017C8.80161 12.1049 9.75544 12.5 10.75 12.5C11.7446 12.5 12.6984 12.1049 13.4017 11.4017C14.1049 10.6984 14.5 9.74456 14.5 8.75C14.5 7.75544 14.1049 6.80161 13.4017 6.09835C12.6984 5.39509 11.7446 5 10.75 5ZM8.5 8.75C8.5 8.15326 8.73705 7.58097 9.15901 7.15901C9.58097 6.73705 10.1533 6.5 10.75 6.5C11.3467 6.5 11.919 6.73705 12.341 7.15901C12.7629 7.58097 13 8.15326 13 8.75C13 9.34674 12.7629 9.91903 12.341 10.341C11.919 10.7629 11.3467 11 10.75 11C10.1533 11 9.58097 10.7629 9.15901 10.341C8.73705 9.91903 8.5 9.34674 8.5 8.75Z" fill="white"/>
<path fill-rule="evenodd" clip-rule="evenodd" d="M10.75 0C6.236 0 3.195 2.704 1.43 4.997L1.399 5.038C0.999 5.557 0.632 6.034 0.383 6.598C0.116 7.203 0 7.862 0 8.75C0 9.638 0.116 10.297 0.383 10.902C0.633 11.466 1 11.944 1.399 12.462L1.431 12.503C3.195 14.796 6.236 17.5 10.75 17.5C15.264 17.5 18.305 14.796 20.07 12.503L20.101 12.462C20.501 11.944 20.868 11.466 21.117 10.902C21.384 10.297 21.5 9.638 21.5 8.75C21.5 7.862 21.384 7.203 21.117 6.598C20.867 6.034 20.5 5.557 20.101 5.038L20.069 4.997C18.305 2.704 15.264 0 10.75 0ZM2.62 5.912C4.248 3.795 6.9 1.5 10.75 1.5C14.6 1.5 17.251 3.795 18.88 5.912C19.32 6.482 19.576 6.822 19.745 7.204C19.903 7.562 20 7.999 20 8.75C20 9.501 19.903 9.938 19.745 10.296C19.576 10.678 19.319 11.018 18.881 11.588C17.25 13.705 14.6 16 10.75 16C6.9 16 4.249 13.705 2.62 11.588C2.18 11.018 1.924 10.678 1.755 10.296C1.597 9.938 1.5 9.501 1.5 8.75C1.5 7.999 1.597 7.562 1.755 7.204C1.924 6.822 2.182 6.482 2.62 5.912Z" fill="white"/>
</svg>
