<svg width="19" height="19" viewBox="0 0 19 19" fill="none" xmlns="http://www.w3.org/2000/svg">
<path d="M0 9.5C0 6.98044 1.00089 4.56408 2.78249 2.78249C4.56408 1.00089 6.98044 0 9.5 0C12.0196 0 14.4359 1.00089 16.2175 2.78249C17.9991 4.56408 19 6.98044 19 9.5C19 12.0196 17.9991 14.4359 16.2175 16.2175C14.4359 17.9991 12.0196 19 9.5 19C6.98044 19 4.56408 17.9991 2.78249 16.2175C1.00089 14.4359 0 12.0196 0 9.5ZM9.5 1.78125C7.45286 1.78125 5.48957 2.59447 4.04202 4.04202C2.59447 5.48957 1.78125 7.45286 1.78125 9.5C1.78125 11.5471 2.59447 13.5104 4.04202 14.958C5.48957 16.4055 7.45286 17.2187 9.5 17.2188C11.5471 17.2187 13.5104 16.4055 14.958 14.958C16.4055 13.5104 17.2188 11.5471 17.2188 9.5C17.2188 7.45286 16.4055 5.48957 14.958 4.04202C13.5104 2.59447 11.5471 1.78125 9.5 1.78125ZM8.2175 7.22594C8.11199 7.43727 7.92805 7.59803 7.70401 7.67285C7.47998 7.74768 7.23539 7.73044 7.02406 7.62494C6.81273 7.51943 6.65197 7.3343 6.57715 7.11026C6.50232 6.88623 6.51956 6.64164 6.62506 6.43031C6.82575 6.02775 7.14281 5.59788 7.63325 5.27013C8.12844 4.94 8.75069 4.75 9.5 4.75C10.1978 4.74556 10.8789 4.96397 11.4439 5.37344C12.0413 5.82113 12.4688 6.51938 12.4688 7.42188C12.4688 7.95388 12.3322 8.4075 12.0781 8.7875C11.8346 9.15206 11.5199 9.39669 11.2563 9.57363C11.1269 9.65913 10.9951 9.7375 10.8846 9.80519L10.8775 9.80994C10.773 9.87064 10.67 9.934 10.5687 9.99994C10.4424 10.0757 10.3313 10.1744 10.241 10.2909C10.1088 10.4846 9.9055 10.6183 9.67529 10.663C9.44509 10.7077 9.20653 10.6599 9.0114 10.5298C8.81628 10.3997 8.68033 10.1979 8.63308 9.96819C8.58582 9.73849 8.63107 9.49942 8.759 9.30288C8.9775 8.98938 9.25775 8.72219 9.58075 8.51794C9.70267 8.43877 9.82656 8.36158 9.95244 8.28638L9.96075 8.28162C10.0795 8.20919 10.1769 8.151 10.2671 8.09044C10.3939 8.01475 10.5055 7.91609 10.5961 7.7995C10.64 7.73537 10.6875 7.63206 10.6875 7.42188C10.6922 7.30018 10.6662 7.17926 10.6118 7.07029C10.5574 6.96132 10.4765 6.86782 10.3764 6.79844C10.119 6.62065 9.81276 6.52728 9.5 6.53125C9.06181 6.53125 8.79344 6.63812 8.62125 6.75331C8.44709 6.87221 8.30773 7.03534 8.2175 7.22594ZM10.6875 13.0625C10.6875 13.3774 10.5624 13.6795 10.3397 13.9022C10.117 14.1249 9.81494 14.25 9.5 14.25C9.18506 14.25 8.88301 14.1249 8.66031 13.9022C8.43761 13.6795 8.3125 13.3774 8.3125 13.0625C8.3125 12.7476 8.43761 12.4455 8.66031 12.2228C8.88301 12.0001 9.18506 11.875 9.5 11.875C9.81494 11.875 10.117 12.0001 10.3397 12.2228C10.5624 12.4455 10.6875 12.7476 10.6875 13.0625Z" fill="white"/>
</svg>
