<svg width="17" height="17" viewBox="0 0 17 17" fill="none" xmlns="http://www.w3.org/2000/svg">
<path d="M16.3006 3.63689L12.8631 0.199386C12.7989 0.135668 12.7227 0.0852569 12.6389 0.0510438C12.5552 0.0168306 12.4655 -0.000511623 12.375 1.14911e-05H1.375C1.01033 1.14911e-05 0.660591 0.144877 0.402728 0.40274C0.144866 0.660602 0 1.01034 0 1.37501V15.125C0 15.4897 0.144866 15.8394 0.402728 16.0973C0.660591 16.3551 1.01033 16.5 1.375 16.5H15.125C15.4897 16.5 15.8394 16.3551 16.0973 16.0973C16.3551 15.8394 16.5 15.4897 16.5 15.125V4.12501C16.5005 4.03453 16.4832 3.94484 16.449 3.86108C16.4148 3.77731 16.3643 3.70113 16.3006 3.63689ZM5.5 1.37501H11V4.12501H5.5V1.37501ZM11 15.125H5.5V9.62501H11V15.125ZM12.375 15.125V9.62501C12.375 9.26034 12.2301 8.9106 11.9723 8.65274C11.7144 8.39488 11.3647 8.25001 11 8.25001H5.5C5.13533 8.25001 4.78559 8.39488 4.52773 8.65274C4.26987 8.9106 4.125 9.26034 4.125 9.62501V15.125H1.375V1.37501H4.125V4.12501C4.125 4.48968 4.26987 4.83942 4.52773 5.09728C4.78559 5.35515 5.13533 5.50001 5.5 5.50001H11C11.3647 5.50001 11.7144 5.35515 11.9723 5.09728C12.2301 4.83942 12.375 4.48968 12.375 4.12501V1.65689L15.125 4.40689V15.125H12.375Z" fill="white"/>
</svg>
